<?xml version="1.0" encoding="utf-8"?>
<!-- Generator: Adobe Illustrator 27.8.0, SVG Export Plug-In . SVG Version: 6.00 Build 0)  -->
<svg version="1.1" id="a" xmlns="http://www.w3.org/2000/svg" xmlns:xlink="http://www.w3.org/1999/xlink" x="0px" y="0px"
	 viewBox="0 0 806 153" style="enable-background:new 0 0 806 153;" xml:space="preserve">
<path d="M538,58.6l25.6-45.5h-72.2v19.3h39.1l-24.1,42.7H523c12.2,0,22.2,9.9,22.2,22.2s-9.9,22.2-22.2,22.2h-33.7v19.3H523
	c22.9,0,41.5-18.6,41.5-41.5C564.5,79.7,553.5,64.6,538,58.6L538,58.6z"/>
<polygon points="450.8,106.2 422.5,58.2 402.7,58.2 374.4,106.2 374.4,12.4 354.6,12.4 354.6,139.8 374.4,139.8 412.6,75 
	450.8,139.8 470.6,139.8 470.6,12.4 450.8,12.4 "/>
<polygon points="621.6,12.4 573.4,139.8 593.3,139.8 631.5,38.7 669.7,139.8 689.5,139.8 641.4,12.4 "/>
<polygon points="291.4,71.5 265.9,12.4 246.1,12.4 281.5,94.5 281.5,139.8 301.3,139.8 301.3,94.5 336.7,12.4 316.9,12.4 "/>
<polygon points="57.9,12.4 9.8,139.8 29.6,139.8 67.8,38.7 106,139.8 125.8,139.8 77.7,12.4 "/>
<polygon points="211.7,104.6 159.8,12.4 140,12.4 140,139.8 159.9,139.8 160.3,48.5 211.7,139.8 231.5,139.8 231.5,12.4 211.7,12.4 
	"/>
<path d="M806.2,139.8l-49.1-49.1c13.5-6.9,22.7-20.9,22.7-37c0-22.9-18.6-41.5-41.5-41.5h-33.7v0.2l0,0v127.4h19.8V85.3l54.5,54.5
	H806.2L806.2,139.8z M738.3,75.9h-13.9V31.5h13.9c12.2,0,22.2,9.9,22.2,22.2S750.5,75.9,738.3,75.9L738.3,75.9z"/>
</svg>
